<?xml version="1.0" encoding="iso-8859-1"?>
<!-- Generator: Adobe Illustrator 16.0.0, SVG Export Plug-In . SVG Version: 6.00 Build 0)  -->
<!DOCTYPE svg PUBLIC "-//W3C//DTD SVG 1.1//EN" "http://www.w3.org/Graphics/SVG/1.1/DTD/svg11.dtd">
<svg version="1.1" id="Layer_1" xmlns="http://www.w3.org/2000/svg" xmlns:xlink="http://www.w3.org/1999/xlink" x="0px" y="0px"
	 width="32px" height="32px" viewBox="0 0 32 32" style="enable-background:new 0 0 32 32;" xml:space="preserve">
<style type="text/css">
<![CDATA[
	.st0{fill:#FFFFFF;}
]]>
</style>
<path class="st0" d="M29.1,3.1H2.9C1.3,3.1,0,4.3,0,5.9V10c0,1.1,0.6,2,1.5,2.5l1.6,13.6c0,1.6,1.3,2.8,2.9,2.8h20
	c1.6,0,2.9-1.3,2.9-2.8l1.6-13.6C31.4,12,32,11.1,32,10V5.9C32,4.3,30.7,3.1,29.1,3.1z M1.6,5.9c0-0.7,0.6-1.2,1.2-1.2h26.2
	c0.7,0,1.2,0.6,1.2,1.2V10c0,0.5-0.4,1-0.9,1.2c-0.1,0-0.3,0.1-0.4,0.1H2.9c-0.1,0-0.2,0-0.4-0.1C2,11,1.6,10.5,1.6,10V5.9z
	 M27.3,26C27.3,26,27.3,26,27.3,26c0,0.8-0.6,1.3-1.2,1.3H6c-0.7,0-1.2-0.6-1.2-1.2c0,0,0-0.1,0-0.1L3.2,12.9h25.6L27.3,26z"/>
</svg>
