<?xml version="1.0" encoding="iso-8859-1"?>
<!-- Generator: Adobe Illustrator 16.0.0, SVG Export Plug-In . SVG Version: 6.00 Build 0)  -->
<!DOCTYPE svg PUBLIC "-//W3C//DTD SVG 1.1//EN" "http://www.w3.org/Graphics/SVG/1.1/DTD/svg11.dtd">
<svg version="1.1" id="Layer_1" xmlns="http://www.w3.org/2000/svg" xmlns:xlink="http://www.w3.org/1999/xlink" x="0px" y="0px"
	 width="32px" height="32px" viewBox="0 0 32 32" style="enable-background:new 0 0 32 32;" xml:space="preserve">
<style type="text/css">
<![CDATA[
	.st0{fill:#FFFFFF;}
]]>
</style>
<path class="st0" d="M16,17.7c3.3,0,6-2.7,6-6c0-3.3-2.7-6-6-6c-3.3,0-6,2.7-6,6C10,15.1,12.7,17.7,16,17.7z M16,6.7
	c2.8,0,5,2.2,5,5c0,2.8-2.2,5-5,5c-2.8,0-5-2.2-5-5C11,9,13.2,6.7,16,6.7z M16,0C9.4,0,4,5.3,4,12c0,7,6,14.2,10.4,19.2
	c0,0,0.7,0.8,1.6,0.8c0,0,0.1,0,0.1,0c0.9,0,1.6-0.8,1.6-0.8C22,26.2,28,19,28,12C28,5.3,22.6,0,16,0z M16.1,29.9
	c0,0-0.1,0.1-0.1,0.1c0,0-0.1-0.1-0.1-0.1C12.2,25.6,6,18.5,6,12C6,6.5,10.5,2,16,2c5.5,0,10,4.5,10,10C26,18.5,19.8,25.6,16.1,29.9
	z"/>
</svg>
