<?xml version="1.0" encoding="iso-8859-1"?>
<!-- Generator: Adobe Illustrator 16.0.0, SVG Export Plug-In . SVG Version: 6.00 Build 0)  -->
<!DOCTYPE svg PUBLIC "-//W3C//DTD SVG 1.1//EN" "http://www.w3.org/Graphics/SVG/1.1/DTD/svg11.dtd">
<svg version="1.1" id="Layer_1" xmlns="http://www.w3.org/2000/svg" xmlns:xlink="http://www.w3.org/1999/xlink" x="0px" y="0px"
	 width="32px" height="32px" viewBox="0 0 32 32" style="enable-background:new 0 0 32 32;" xml:space="preserve">
<style type="text/css">
<![CDATA[
	.st0{fill:#FFFFFF;}
]]>
</style>
<path class="st0" d="M12,28.3L12,28.3C12,28.3,12,28.3,12,28.3C12,28.3,12,28.3,12,28.3c-0.7,0-1.4-0.3-1.9-0.8l-2.2-2.2
	c-0.1-0.1-0.2-0.2-0.2-0.3l-6.6-6.6c-0.5-0.5-0.8-1.1-0.8-1.8c0-0.7,0.3-1.4,0.8-1.8l2.2-2.2c1-1,2.7-1,3.7,0l5,5L25.3,4.2
	c1-1,2.7-1,3.7,0l2.2,2.2C31.7,6.9,32,7.6,32,8.3c0,0.7-0.3,1.4-0.8,1.8l-15,15c-0.1,0.1-0.1,0.2-0.2,0.2l-2.2,2.2
	C13.4,28,12.7,28.3,12,28.3z M5.1,13.6c-0.2,0-0.4,0.1-0.5,0.2l-2.2,2.2c-0.1,0.1-0.2,0.3-0.2,0.5c0,0.2,0.1,0.4,0.2,0.5l6.7,6.7
	c0,0,0.1,0.1,0.1,0.1L9.2,24l2.2,2.2c0.1,0.1,0.3,0.2,0.5,0.2h0l0,0c0.2,0,0.4-0.1,0.5-0.2l2.2-2.2c0,0,0-0.1,0.1-0.1
	c0,0,0.1-0.1,0.1-0.1l15-15c0.1-0.1,0.2-0.3,0.2-0.5c0-0.2-0.1-0.4-0.2-0.5l-2.2-2.2c-0.3-0.3-0.8-0.3-1,0l-14,14
	c-0.4,0.4-1,0.4-1.3,0l-5.7-5.7C5.5,13.7,5.3,13.6,5.1,13.6z"/>
</svg>
