<?xml version="1.0" encoding="iso-8859-1"?>
<!-- Generator: Adobe Illustrator 16.0.0, SVG Export Plug-In . SVG Version: 6.00 Build 0)  -->
<!DOCTYPE svg PUBLIC "-//W3C//DTD SVG 1.1//EN" "http://www.w3.org/Graphics/SVG/1.1/DTD/svg11.dtd">
<svg version="1.1" id="Layer_1" xmlns="http://www.w3.org/2000/svg" xmlns:xlink="http://www.w3.org/1999/xlink" x="0px" y="0px"
	 width="32px" height="32px" viewBox="0 0 32 32" style="enable-background:new 0 0 32 32;" xml:space="preserve">
<style type="text/css">
<![CDATA[
	.st0{fill:#FFFFFF;}
]]>
</style>
<path class="st0" d="M28,5H4C1.8,5,0,6.8,0,9v13c0,2.2,1.8,4,4,4h24c2.2,0,4-1.8,4-4V9C32,6.8,30.2,5,28,5z M2,10.3l7,5.3l-7,5.3
	V10.3z M30,22c0,1.1-0.9,2-2,2H4c-1.1,0-2-0.9-2-2l7.8-5.9l4.4,3.3c0.5,0.4,1.2,0.6,1.8,0.6c0.6,0,1.3-0.2,1.8-0.6l4.4-3.3L30,22z
	 M30,20.8l-7-5.3l7-5.3V20.8z M17.2,18.6C16.8,18.9,16.4,19,16,19c-0.4,0-0.9-0.1-1.2-0.4L2,9c0-1.1,0.9-2,2-2h24c1.1,0,2,0.9,2,2
	L17.2,18.6z"/>
</svg>
