<?xml version="1.0" encoding="iso-8859-1"?>
<!-- Generator: Adobe Illustrator 16.0.0, SVG Export Plug-In . SVG Version: 6.00 Build 0)  -->
<!DOCTYPE svg PUBLIC "-//W3C//DTD SVG 1.1//EN" "http://www.w3.org/Graphics/SVG/1.1/DTD/svg11.dtd">
<svg version="1.1" id="Isolation_Mode" xmlns="http://www.w3.org/2000/svg" xmlns:xlink="http://www.w3.org/1999/xlink" x="0px"
	 y="0px" width="630.1px" height="77.2px" viewBox="0 0 630.1 77.2" style="enable-background:new 0 0 630.1 77.2;"
	 xml:space="preserve">
<style type="text/css">
<![CDATA[
	.st0{fill:#449F94;}
]]>
</style>
<path class="st0" d="M626.6,0h-3.1c0,2-1.6,3.5-3.5,3.5c-2,0-3.5-1.6-3.5-3.5h-3.1c0,2-1.6,3.5-3.5,3.5c-2,0-3.5-1.6-3.5-3.5h-3.1
	c0,2-1.6,3.5-3.5,3.5c-2,0-3.5-1.6-3.5-3.5h-3.1c0,2-1.6,3.5-3.5,3.5c-2,0-3.5-1.6-3.5-3.5h-3.1c0,2-1.6,3.5-3.5,3.5
	c-2,0-3.5-1.6-3.5-3.5h-3.1c0,2-1.6,3.5-3.5,3.5c-2,0-3.5-1.6-3.5-3.5h-3.1c0,1.9-1.5,3.4-3.3,3.5c-1.8-0.1-3.3-1.6-3.3-3.5h-3.1
	c0,2-1.6,3.5-3.5,3.5c-2,0-3.5-1.6-3.5-3.5h-3.1c0,2-1.6,3.5-3.5,3.5c-2,0-3.5-1.6-3.5-3.5h-0.2h-2.9H532c0,1.7-1.2,3.1-2.8,3.5
	c0,0,0,0,0,0c-0.2,0-0.5,0.1-0.7,0.1c-2,0-3.5-1.6-3.5-3.5h-3.1c0,2-1.6,3.5-3.5,3.5c-2,0-3.5-1.6-3.5-3.5h-3.1c0,2-1.6,3.5-3.5,3.5
	c-2,0-3.5-1.6-3.5-3.5h-3.1c0,2-1.6,3.5-3.5,3.5c-2,0-3.5-1.6-3.5-3.5h-3.1c0,2-1.6,3.5-3.5,3.5c-2,0-3.5-1.6-3.5-3.5h-3.1
	c0,2-1.6,3.5-3.5,3.5c-2,0-3.5-1.6-3.5-3.5h-3.1c0,1.9-1.5,3.4-3.3,3.5c-1.8-0.1-3.3-1.6-3.3-3.5h0H461h0c0,2-1.6,3.5-3.5,3.5
	c-1.9,0-3.5-1.6-3.5-3.5h0h-3.1h0c0,2-1.6,3.5-3.5,3.5c-1.9,0-3.5-1.6-3.5-3.5h0h-3.1h0c0,1.2-0.6,2.3-1.5,2.9c0,0-0.1,0.1-0.1,0.1
	c-0.1,0.1-0.3,0.1-0.4,0.2c-0.1,0.1-0.2,0.1-0.4,0.1c-0.1,0-0.1,0-0.2,0.1c-0.2,0-0.4,0.1-0.5,0.1c-0.1,0-0.2,0-0.4,0
	c-2,0-3.5-1.6-3.5-3.5h-3.1c0,2-1.6,3.5-3.5,3.5c-2,0-3.5-1.6-3.5-3.5h-3.1c0,2-1.6,3.5-3.5,3.5c-2,0-3.5-1.6-3.5-3.5H410
	c0,2-1.6,3.5-3.5,3.5c-2,0-3.5-1.6-3.5-3.5h-3.1c0,1.9-1.5,3.4-3.3,3.5c-1.8-0.1-3.3-1.6-3.3-3.5h-3.1c0,2-1.6,3.5-3.5,3.5
	c-2,0-3.5-1.6-3.5-3.5h-3.1c0,2-1.6,3.5-3.5,3.5c-2,0-3.5-1.6-3.5-3.5h-0.2h-2.9h-0.2c0,1.7-1.2,3.1-2.8,3.5c0,0,0,0,0,0
	c-0.2,0-0.5,0.1-0.7,0.1c-2,0-3.5-1.6-3.5-3.5h-3.1c0,1.9-1.6,3.5-3.5,3.5c-1.9,0-3.5-1.6-3.5-3.5h-0.1h-3.1h-0.1
	c0,1.9-1.6,3.5-3.5,3.5c-1.9,0-3.5-1.6-3.5-3.5H342h-3.1h-0.1c0,1.9-1.6,3.5-3.5,3.5c-1.9,0-3.5-1.6-3.5-3.5h-0.1h-3.1h-0.1
	c0,1.9-1.6,3.5-3.5,3.5c-1.9,0-3.5-1.6-3.5-3.5h-0.1h-3.1h-0.1c0,1.9-1.6,3.5-3.5,3.5c-1.9,0-3.5-1.6-3.5-3.5h-0.1h-3.1h-0.1
	c0,1.9-1.5,3.4-3.3,3.5c-1.8-0.1-3.3-1.6-3.3-3.5h-0.4h-2.7h-0.4c0,1.9-1.5,3.4-3.3,3.5c-1.9-0.1-3.3-1.6-3.3-3.5H291h-2.7h-0.4
	c0,1.9-1.5,3.4-3.3,3.5c-1.8-0.1-3.3-1.6-3.3-3.5h-0.1h-3.1h-0.1c0,1.9-1.4,3.4-3.2,3.5c0,0,0,0,0,0c-0.1,0-0.1,0-0.2,0
	c-2,0-3.5-1.6-3.5-3.5H268c0,2-1.6,3.5-3.5,3.5c-2,0-3.5-1.6-3.5-3.5h-0.2h-2.9h-0.2c0,1.7-1.2,3.1-2.8,3.5c0,0,0,0,0,0
	c-0.2,0-0.5,0.1-0.7,0.1c-2,0-3.5-1.6-3.5-3.5h-3.1c0,2-1.6,3.5-3.5,3.5c-2,0-3.5-1.6-3.5-3.5h-3.1c0,2-1.6,3.5-3.5,3.5
	c-2,0-3.5-1.6-3.5-3.5H227c0,2-1.6,3.5-3.5,3.5c-2,0-3.5-1.6-3.5-3.5h-3.1c0,2-1.6,3.5-3.5,3.5c-2,0-3.5-1.6-3.5-3.5h-3.1
	c0,2-1.6,3.5-3.5,3.5c-2,0-3.5-1.6-3.5-3.5h-3.1c0,1.9-1.5,3.4-3.3,3.5c-1.8-0.1-3.3-1.6-3.3-3.5h0h-3.1h0c0,2-1.6,3.5-3.5,3.5
	c-1.9,0-3.5-1.6-3.5-3.5h0h-3.1h0c0,2-1.6,3.5-3.5,3.5c-1.9,0-3.5-1.6-3.5-3.5h0h-3.1h0c0,1.2-0.6,2.3-1.5,2.9c0,0-0.1,0.1-0.1,0.1
	c-0.1,0.1-0.3,0.1-0.4,0.2c-0.1,0.1-0.2,0.1-0.4,0.1c-0.1,0-0.1,0-0.2,0.1c-0.2,0-0.4,0.1-0.5,0.1c-0.1,0-0.2,0-0.4,0
	c-2,0-3.5-1.6-3.5-3.5h-3.1c0,2-1.6,3.5-3.5,3.5c-2,0-3.5-1.6-3.5-3.5h-3.1c0,2-1.6,3.5-3.5,3.5c-2,0-3.5-1.6-3.5-3.5h-3.1
	c0,2-1.6,3.5-3.5,3.5c-2,0-3.5-1.6-3.5-3.5h-3.1c0,1.9-1.5,3.4-3.3,3.5c-1.8-0.1-3.3-1.6-3.3-3.5h-3.1c0,2-1.6,3.5-3.5,3.5
	c-2,0-3.5-1.6-3.5-3.5h-3.1c0,2-1.6,3.5-3.5,3.5c-2,0-3.5-1.6-3.5-3.5h-0.2h-2.9h-0.2c0,1.7-1.2,3.1-2.8,3.5c0,0,0,0,0,0
	c-0.2,0-0.5,0.1-0.7,0.1c-2,0-3.5-1.6-3.5-3.5h-3.1c0,2-1.6,3.5-3.5,3.5c-2,0-3.5-1.6-3.5-3.5h-3.1c0,2-1.6,3.5-3.5,3.5
	c-2,0-3.5-1.6-3.5-3.5h-3.1c0,2-1.6,3.5-3.5,3.5c-2,0-3.5-1.6-3.5-3.5h-3.1c0,2-1.6,3.5-3.5,3.5c-2,0-3.5-1.6-3.5-3.5h-3.1
	c0,2-1.6,3.5-3.5,3.5c-2,0-3.5-1.6-3.5-3.5h-3.1c0,1.9-1.5,3.4-3.3,3.5c-1.8-0.1-3.3-1.6-3.3-3.5h-3.1c0,2-1.6,3.5-3.5,3.5
	c-2,0-3.5-1.6-3.5-3.5H14c0,2-1.6,3.5-3.5,3.5C8.5,3.5,6.9,2,6.9,0H3.8c0,1.9-1.4,3.4-3.2,3.5C0.5,3.7,0.3,3.8,0.1,3.8
	c0,0-0.1,0-0.1,0v1.1c0,0,0.1,0,0.1,0c0.3,0,0.5,0.2,0.5,0.5v2c0,0.3-0.2,0.5-0.5,0.5c0,0-0.1,0-0.1,0v1c0,0,0.1,0,0.1,0
	c0.3,0,0.5,0.2,0.5,0.5v2c0,0.3-0.2,0.5-0.5,0.5c0,0-0.1,0-0.1,0v1c0,0,0.1,0,0.1,0c0.3,0,0.5,0.2,0.5,0.5v2c0,0.3-0.2,0.5-0.5,0.5
	c0,0-0.1,0-0.1,0v1c0,0,0.1,0,0.1,0c0.3,0,0.5,0.2,0.5,0.5v2c0,0.3-0.2,0.5-0.5,0.5c0,0-0.1,0-0.1,0v1c0,0,0.1,0,0.1,0
	c0.3,0,0.5,0.2,0.5,0.5v2c0,0.3-0.2,0.5-0.5,0.5c0,0-0.1,0-0.1,0v1c0,0,0.1,0,0.1,0c0.3,0,0.5,0.2,0.5,0.5v2c0,0.3-0.2,0.5-0.5,0.5
	c0,0-0.1,0-0.1,0v1c0,0,0.1,0,0.1,0c0.3,0,0.5,0.2,0.5,0.5v2c0,0.3-0.2,0.5-0.5,0.5c0,0-0.1,0-0.1,0v1c0,0,0.1,0,0.1,0
	c0.3,0,0.5,0.2,0.5,0.5v2c0,0.3-0.2,0.5-0.5,0.5c0,0-0.1,0-0.1,0v1c0,0,0.1,0,0.1,0c0.3,0,0.5,0.2,0.5,0.5v2c0,0.3-0.2,0.5-0.5,0.5
	c0,0-0.1,0-0.1,0v1c0,0,0.1,0,0.1,0c0.3,0,0.5,0.2,0.5,0.5v2c0,0.3-0.2,0.5-0.5,0.5c0,0-0.1,0-0.1,0v1c0,0,0.1,0,0.1,0
	c0.3,0,0.5,0.2,0.5,0.5v2c0,0.3-0.2,0.5-0.5,0.5c0,0-0.1,0-0.1,0v1c0,0,0.1,0,0.1,0c0.3,0,0.5,0.2,0.5,0.5v2c0,0.3-0.2,0.5-0.5,0.5
	c0,0-0.1,0-0.1,0v1c0,0,0.1,0,0.1,0c0.3,0,0.5,0.2,0.5,0.5v2c0,0.3-0.2,0.5-0.5,0.5c0,0-0.1,0-0.1,0v1c0,0,0.1,0,0.1,0
	c0.3,0,0.5,0.2,0.5,0.5v2c0,0.3-0.2,0.5-0.5,0.5c0,0-0.1,0-0.1,0v1c0,0,0.1,0,0.1,0c0.3,0,0.5,0.2,0.5,0.5v2c0,0.3-0.2,0.5-0.5,0.5
	c0,0-0.1,0-0.1,0v1c0,0,0.1,0,0.1,0c0.3,0,0.5,0.2,0.5,0.5v2c0,0.3-0.2,0.5-0.5,0.5c0,0-0.1,0-0.1,0v1c0,0,0.1,0,0.1,0
	c0.3,0,0.5,0.2,0.5,0.5v2c0,0.3-0.2,0.5-0.5,0.5c0,0-0.1,0-0.1,0v1c0,0,0.1,0,0.1,0c0.3,0,0.5,0.2,0.5,0.5v0.4
	c1.8,0.2,3.2,1.7,3.2,3.5h3.1c0-2,1.6-3.5,3.5-3.5c2,0,3.5,1.6,3.5,3.5h3.1c0-2,1.6-3.5,3.5-3.5c2,0,3.5,1.6,3.5,3.5h3.1
	c0-1.9,1.5-3.4,3.3-3.5c1.8,0.1,3.3,1.6,3.3,3.5h3.1c0-2,1.6-3.5,3.5-3.5c2,0,3.5,1.6,3.5,3.5h3.1c0-2,1.6-3.5,3.5-3.5
	c2,0,3.5,1.6,3.5,3.5h3.1c0-2,1.6-3.5,3.5-3.5c2,0,3.5,1.6,3.5,3.5h3.1c0-2,1.6-3.5,3.5-3.5c2,0,3.5,1.6,3.5,3.5h3.1
	c0-2,1.6-3.5,3.5-3.5c2,0,3.5,1.6,3.5,3.5h3.1c0-2,1.6-3.5,3.5-3.5c0.2,0,0.5,0,0.7,0.1c0,0,0,0,0,0c1.6,0.3,2.8,1.8,2.8,3.5h0.2h3
	h0.2c0-2,1.6-3.5,3.5-3.5c2,0,3.5,1.6,3.5,3.5h3.1c0-2,1.6-3.5,3.5-3.5c2,0,3.5,1.6,3.5,3.5h3.1c0-1.9,1.5-3.4,3.3-3.5
	c1.8,0.1,3.3,1.6,3.3,3.5h3.1c0-2,1.6-3.5,3.5-3.5c2,0,3.5,1.6,3.5,3.5h3.1c0-2,1.6-3.5,3.5-3.5c2,0,3.5,1.6,3.5,3.5h3.1
	c0-2,1.6-3.5,3.5-3.5c2,0,3.5,1.6,3.5,3.5h3.1c0-2,1.6-3.5,3.5-3.5c0.1,0,0.3,0,0.4,0c0.2,0,0.4,0.1,0.5,0.1c0.1,0,0.1,0,0.2,0.1
	c0.1,0,0.2,0.1,0.4,0.1c0.1,0.1,0.3,0.1,0.4,0.2c0,0,0.1,0.1,0.1,0.1c0.9,0.6,1.5,1.7,1.5,2.9h0h3.1h0c0-2,1.6-3.5,3.5-3.5
	c1.9,0,3.5,1.6,3.5,3.5h0h3.1h0c0-2,1.6-3.5,3.5-3.5c1.9,0,3.5,1.6,3.5,3.5h0h3.1h0c0-1.9,1.5-3.4,3.3-3.5c1.8,0.1,3.3,1.6,3.3,3.5
	h3.1c0-2,1.6-3.5,3.5-3.5c2,0,3.5,1.6,3.5,3.5h3.1c0-2,1.6-3.5,3.5-3.5c2,0,3.5,1.6,3.5,3.5h3.1c0-2,1.6-3.5,3.5-3.5
	c2,0,3.5,1.6,3.5,3.5h3.1c0-2,1.6-3.5,3.5-3.5c2,0,3.5,1.6,3.5,3.5h3.1c0-2,1.6-3.5,3.5-3.5c2,0,3.5,1.6,3.5,3.5h3.1
	c0-2,1.6-3.5,3.5-3.5c0.2,0,0.5,0,0.7,0.1c0,0,0,0,0,0c1.6,0.3,2.8,1.8,2.8,3.5h0.2h3h0.2c0-2,1.6-3.5,3.5-3.5c2,0,3.5,1.6,3.5,3.5
	h3.1c0-2,1.6-3.5,3.5-3.5c0.1,0,0.2,0,0.3,0v0c1.8,0.2,3.2,1.7,3.2,3.5h0.1h3.1h0.1c0-1.9,1.5-3.4,3.3-3.5c1.8,0.1,3.3,1.6,3.3,3.5
	h0.4h2.7h0.4c0-1.9,1.5-3.4,3.3-3.5c1.9,0.1,3.3,1.6,3.3,3.5h0.4h2.7h0.4c0-1.9,1.5-3.4,3.3-3.5c1.8,0.1,3.3,1.6,3.3,3.5h0.1h3.1
	h0.1c0-1.9,1.6-3.5,3.5-3.5c1.9,0,3.5,1.6,3.5,3.5h0.1h3.1h0.1c0-1.9,1.6-3.5,3.5-3.5c1.9,0,3.5,1.6,3.5,3.5h0.1h3.1h0.1
	c0-1.9,1.6-3.5,3.5-3.5c1.9,0,3.5,1.6,3.5,3.5h0.1h3.1h0.1c0-1.9,1.6-3.5,3.5-3.5c1.9,0,3.5,1.6,3.5,3.5h0.1h3.1h0.1
	c0-1.9,1.6-3.5,3.5-3.5c1.9,0,3.5,1.6,3.5,3.5h3.1c0-2,1.6-3.5,3.5-3.5c0.2,0,0.5,0,0.7,0.1c0,0,0,0,0,0c1.6,0.3,2.8,1.8,2.8,3.5
	h0.2h3h0.2c0-2,1.6-3.5,3.5-3.5c2,0,3.5,1.6,3.5,3.5h3.1c0-2,1.6-3.5,3.5-3.5c2,0,3.5,1.6,3.5,3.5h3.1c0-1.9,1.5-3.4,3.3-3.5
	c1.8,0.1,3.3,1.6,3.3,3.5h3.1c0-2,1.6-3.5,3.5-3.5c2,0,3.5,1.6,3.5,3.5h3.1c0-2,1.6-3.5,3.5-3.5c2,0,3.5,1.6,3.5,3.5h3.1
	c0-2,1.6-3.5,3.5-3.5c2,0,3.5,1.6,3.5,3.5h3.1c0-2,1.6-3.5,3.5-3.5c0.1,0,0.3,0,0.4,0c0.2,0,0.4,0.1,0.5,0.1c0.1,0,0.1,0,0.2,0.1
	c0.1,0,0.2,0.1,0.4,0.1c0.1,0.1,0.3,0.1,0.4,0.2c0,0,0.1,0.1,0.1,0.1c0.9,0.6,1.5,1.7,1.5,2.9h0h3.1h0c0-2,1.6-3.5,3.5-3.5
	c1.9,0,3.5,1.6,3.5,3.5h0h3.1h0c0-2,1.6-3.5,3.5-3.5c1.9,0,3.5,1.6,3.5,3.5h0h3.1h0c0-1.9,1.5-3.4,3.3-3.5c1.8,0.1,3.3,1.6,3.3,3.5
	h3.1c0-2,1.6-3.5,3.5-3.5c2,0,3.5,1.6,3.5,3.5h3.1c0-2,1.6-3.5,3.5-3.5c2,0,3.5,1.6,3.5,3.5h3.1c0-2,1.6-3.5,3.5-3.5
	c2,0,3.5,1.6,3.5,3.5h3.1c0-2,1.6-3.5,3.5-3.5c2,0,3.5,1.6,3.5,3.5h3.1c0-2,1.6-3.5,3.5-3.5c2,0,3.5,1.6,3.5,3.5h3.1
	c0-2,1.6-3.5,3.5-3.5c0.2,0,0.5,0,0.7,0.1c0,0,0,0,0,0c1.6,0.3,2.8,1.8,2.8,3.5h0.2h3h0.2c0-2,1.6-3.5,3.5-3.5c2,0,3.5,1.6,3.5,3.5
	h3.1c0-2,1.6-3.5,3.5-3.5c2,0,3.5,1.6,3.5,3.5h3.1c0-1.9,1.5-3.4,3.3-3.5c1.8,0.1,3.3,1.6,3.3,3.5h3.1c0-2,1.6-3.5,3.5-3.5
	c2,0,3.5,1.6,3.5,3.5h3.1c0-2,1.6-3.5,3.5-3.5c2,0,3.5,1.6,3.5,3.5h3.1c0-2,1.6-3.5,3.5-3.5c2,0,3.5,1.6,3.5,3.5h3.1
	c0-2,1.6-3.5,3.5-3.5c2,0,3.5,1.6,3.5,3.5h3.1c0-2,1.6-3.5,3.5-3.5c2,0,3.5,1.6,3.5,3.5h3.1c0-2,1.6-3.5,3.5-3.5
	c2,0,3.5,1.6,3.5,3.5h3.1c0-2,1.6-3.5,3.5-3.5V3.5C628.2,3.5,626.6,2,626.6,0z"/>
</svg>
