<?xml version="1.0" encoding="iso-8859-1"?>
<!-- Generator: Adobe Illustrator 16.0.0, SVG Export Plug-In . SVG Version: 6.00 Build 0)  -->
<!DOCTYPE svg PUBLIC "-//W3C//DTD SVG 1.1//EN" "http://www.w3.org/Graphics/SVG/1.1/DTD/svg11.dtd">
<svg version="1.1" id="Isolation_Mode" xmlns="http://www.w3.org/2000/svg" xmlns:xlink="http://www.w3.org/1999/xlink" x="0px"
	 y="0px" width="40.5px" height="77.2px" viewBox="0 0 40.5 77.2" style="enable-background:new 0 0 40.5 77.2;"
	 xml:space="preserve">
<style type="text/css">
<![CDATA[
	.st0{fill:#449F94;}
]]>
</style>
<path class="st0" d="M40.2,71.3v-2c0-0.2,0.2-0.4,0.4-0.5v-1c-0.2-0.1-0.4-0.2-0.4-0.5v-2c0-0.2,0.2-0.4,0.4-0.5v-1
	c-0.2-0.1-0.4-0.2-0.4-0.5v-2c0-0.2,0.2-0.4,0.4-0.5v-1c-0.2-0.1-0.4-0.2-0.4-0.5v-2c0-0.2,0.2-0.4,0.4-0.5v-1
	c-0.2-0.1-0.4-0.2-0.4-0.5v-2c0-0.2,0.2-0.4,0.4-0.5v-1c-0.2-0.1-0.4-0.2-0.4-0.5v-2c0-0.2,0.2-0.4,0.4-0.5v-1
	c-0.2-0.1-0.4-0.2-0.4-0.5v-2c0-0.2,0.2-0.4,0.4-0.5v-1c-0.2-0.1-0.4-0.2-0.4-0.5v-2c0-0.2,0.2-0.4,0.4-0.5v-1
	c-0.2-0.1-0.4-0.2-0.4-0.5v-2c0-0.2,0.2-0.4,0.4-0.5v-1c-0.2-0.1-0.4-0.2-0.4-0.5v-2c0-0.2,0.2-0.4,0.4-0.5v-1
	c-0.2-0.1-0.4-0.2-0.4-0.5v-2c0-0.2,0.2-0.4,0.4-0.5v-1c-0.2-0.1-0.4-0.2-0.4-0.5v-2c0-0.2,0.2-0.4,0.4-0.5v-1
	c-0.2-0.1-0.4-0.2-0.4-0.5v-2c0-0.2,0.2-0.4,0.4-0.5v-1c-0.2-0.1-0.4-0.2-0.4-0.5v-2c0-0.2,0.2-0.4,0.4-0.5v-1
	c-0.2-0.1-0.4-0.2-0.4-0.5v-2c0-0.2,0.2-0.4,0.4-0.5v-1c-0.2-0.1-0.4-0.2-0.4-0.5v-2c0-0.2,0.2-0.4,0.4-0.5v-1
	c-0.2-0.1-0.4-0.2-0.4-0.5v-2c0-0.2,0.2-0.4,0.4-0.5V3.8c-0.2,0-0.3-0.1-0.3-0.3c-1.7-0.3-2.9-1.7-2.9-3.5h-3.1c0,2-1.6,3.5-3.5,3.5
	c-2,0-3.5-1.6-3.5-3.5h-3.1c0,2-1.6,3.5-3.5,3.5c-2,0-3.5-1.6-3.5-3.5h-3.1c0,2-1.6,3.5-3.5,3.5C8.2,3.5,6.7,2,6.7,0H3.5
	C3.5,2,2,3.5,0,3.5v70.2c2,0,3.5,1.6,3.5,3.5h3.1c0-2,1.6-3.5,3.5-3.5c2,0,3.5,1.6,3.5,3.5h3.1c0-2,1.6-3.5,3.5-3.5
	c2,0,3.5,1.6,3.5,3.5h3.1c0-2,1.6-3.5,3.5-3.5c2,0,3.5,1.6,3.5,3.5h3.1c0-1.7,1.2-3.2,2.9-3.5v-0.5c0-0.2,0.2-0.4,0.4-0.5v-1
	C40.3,71.7,40.2,71.5,40.2,71.3z"/>
</svg>
